# xmcd
#
# Track frame offsets: 
#        150
#        33218
#        56836
#        96635
#        114477
#        133543
#        152198
#        167414
#        188021
#        207665
#
# Disc length: 3523 seconds
#
# Revision: 0
# Processed by: cddbd v1.5.1PL2 Copyright (c) Steve Scherf et al.
# Submitted via: ExactAudioCopy v0.95a5
#
DISCID=8a0dc10a
DTITLE=Phil Guy - He's My Blues Brother
DYEAR=2006
DGENRE=Blues
TTITLE0=He's My Blues Brother
TTITLE1=On Our Front Porch
TTITLE2=Still Here
TTITLE3=Too Young To Die
TTITLE4=I Just Can't Stop
TTITLE5=Back To Louisiana
TTITLE6=Phil's The Guy
TTITLE7=I'm Worried
TTITLE8=Got My Mind On Lovin' You
TTITLE9=I Feel Sexy
EXTD=
EXTT0=
EXTT1=
EXTT2=
EXTT3=
EXTT4=
EXTT5=
EXTT6=
EXTT7=
EXTT8=
EXTT9=
PLAYORDER=
